<svg id="Camada_1" data-name="Camada 1" xmlns="http://www.w3.org/2000/svg" viewBox="0 0 258.89 233.06"><defs><style>.cls-1{fill:#2fac66;}.cls-2{fill:none;stroke:#fff;stroke-miterlimit:10;stroke-width:5px;}.cls-3{fill:#fff;}</style></defs><path class="cls-1" d="M336.9,305.57H240.52a33.05,33.05,0,0,0-28.63,16.53L163.7,405.57a33,33,0,0,0,0,33.06l48.19,83.47a33.05,33.05,0,0,0,28.63,16.53H336.9a33.05,33.05,0,0,0,28.63-16.53l48.19-83.47a33,33,0,0,0,0-33.06L365.53,322.1A33.05,33.05,0,0,0,336.9,305.57Z" transform="translate(-159.27 -305.57)"/><path class="cls-2" d="M325.24,326.49H252.18a32.34,32.34,0,0,0-28,16.17l-36.53,63.27a32.33,32.33,0,0,0,0,32.34l36.53,63.26a32.32,32.32,0,0,0,28,16.17h73.06a32.32,32.32,0,0,0,28-16.17l36.53-63.26a32.33,32.33,0,0,0,0-32.34l-36.53-63.27A32.34,32.34,0,0,0,325.24,326.49Z" transform="translate(-159.27 -305.57)"/><path class="cls-3" d="M272.27,438.33l-6.92-7.79q-16-18-32-35.89c-3.44-3.85-3.35-8.82.18-11.76,3.08-2.59,7-2.29,9.92.87,2.15,2.28,4.2,4.67,6.29,7l36.62,41.05c4.15,4.65,4.16,8.39,0,13L244,492.37c-3.68,4.12-8.49,4.28-11.5.37-2.46-3.19-2.2-7.22.71-10.51q8.74-9.86,17.54-19.68l20.62-23.1C271.63,439.12,271.9,438.77,272.27,438.33Z" transform="translate(-159.27 -305.57)"/><path class="cls-3" d="M301.38,404.66c2.55-2.88,5-5.7,7.55-8.51L343.86,357c3.75-4.21,3.66-9.62-.19-12.84-3.37-2.82-7.6-2.49-10.83.95-2.34,2.5-4.58,5.1-6.86,7.66l-40,44.8c-4.53,5.06-4.53,9.15,0,14.2l46.25,51.85c4,4.5,9.26,4.67,12.55.4,2.68-3.48,2.4-7.88-.78-11.47q-9.54-10.76-19.13-21.47l-22.5-25.2C302.07,405.52,301.77,405.14,301.38,404.66Z" transform="translate(-159.27 -305.57)"/><path class="cls-3" d="M183.11,420.45c1.76-2.18,3.39-4.47,5.29-6.51,15.86-17.13,33.81-31.54,55-41.57,14.67-6.95,30-11.09,46.42-10.86,15.63.22,30.31,4.28,44.31,11,22.51,10.77,41.39,26.26,57.81,44.89,3.15,3.58,3.15,5.86,0,9.4-18.12,20.44-39,37.21-64.39,47.8a100.22,100.22,0,0,1-39.59,8.1,101.56,101.56,0,0,1-40.06-8.85C223.15,463.08,202.7,446.55,185,426.4a29,29,0,0,1-1.89-2.65Zm198.39,2C368,408,353.6,395.93,337,386.65c-13.24-7.38-27.2-12.53-42.49-13.69-16-1.21-30.88,2.53-45.21,9.16-18.43,8.52-34.16,20.8-48.42,35.08-1.59,1.59-3.11,3.23-4.72,4.9,13.23,14.08,27.69,26.21,44.39,35.53,12.38,6.92,25.46,11.81,39.63,13.41A82.64,82.64,0,0,0,315,467.17c17.11-5.5,32.16-14.68,45.85-26.1C367.92,435.2,374.51,428.78,381.5,422.45Z" transform="translate(-159.27 -305.57)"/></svg>